<svg width="429" height="84" viewBox="0 0 429 84" fill="none" xmlns="http://www.w3.org/2000/svg">
<path d="M0 3.7507L25.3823 0V35.1628C27.1395 30.9042 29.7949 27.6223 33.3875 25.3563C36.941 23.0512 41.2755 21.9181 46.3129 21.9181C54.0057 21.9181 60.0584 24.653 64.432 30.1619C68.8056 35.6707 70.9924 43.2502 70.9924 52.9786V83.0623H45.7272V50.4391C45.7272 47.0009 44.9853 44.3442 43.5014 42.5079C42.0175 40.6716 39.9478 39.734 37.2925 39.734C35.379 39.734 33.4656 40.3591 31.6303 41.6093C29.7949 42.8595 28.272 44.6177 27.1395 46.9619C25.9681 49.267 25.3823 51.9237 25.3823 54.893V83.0623H0V3.7507Z" fill="#2D2E42"/>
<path d="M97.2727 80.64C92.3525 78.4131 88.5256 75.2094 85.7921 71.1461C83.0586 67.0438 81.6919 62.3945 81.6919 57.1982V22.7386H106.488V56.8075C106.488 59.4642 107.23 61.5349 108.714 63.0196C110.198 64.5042 112.073 65.2466 114.298 65.2466C116.446 65.2466 118.242 64.5042 119.648 63.0196C121.054 61.5349 121.757 59.4642 121.757 56.8075V22.7386H146.046V57.1591C146.046 62.4726 144.718 67.1219 142.024 71.1852C139.329 75.2484 135.58 78.374 130.777 80.64C125.974 82.9061 120.429 84 114.181 84C107.816 84 102.193 82.9061 97.2727 80.64Z" fill="#2D2E42"/>
<path d="M169.202 79.7023C164.751 76.8112 161.236 72.9823 158.659 68.2158C156.082 63.4493 154.793 58.3702 154.793 52.9786C154.793 47.2744 156.121 42.0391 158.815 37.2726C161.51 32.5061 165.102 28.7554 169.632 26.0205C174.162 23.2856 179.004 21.9181 184.119 21.9181C188.766 21.9181 192.71 22.8949 195.951 24.8093C199.192 26.7237 201.809 29.8102 203.839 34.0688V3.7507L229.222 0V83.0623H203.839V71.8493C200.052 79.9758 193.452 84 184.002 84C178.613 84 173.654 82.5544 169.202 79.7023ZM200.481 61.3786C202.785 58.9563 203.917 56.1823 203.917 52.9395V52.4707C203.917 49.3451 202.707 46.6493 200.325 44.3442C197.904 42.0781 195.17 40.906 192.007 40.906C188.649 40.906 185.798 42.0781 183.534 44.4614C181.23 46.8056 180.097 49.6577 180.097 52.9395C180.097 56.2995 181.269 59.1516 183.651 61.4958C186.033 63.84 188.805 65.0121 192.007 65.0121C195.366 65.0121 198.177 63.8009 200.481 61.3786Z" fill="#2D2E42"/>
<path d="M253.042 79.7023C248.59 76.8112 245.076 72.9823 242.498 68.2158C239.921 63.4493 238.633 58.3702 238.633 52.9786C238.633 47.2744 239.96 42.0391 242.655 37.2726C245.349 32.5061 248.942 28.7554 253.471 26.0205C258.001 23.2856 262.843 21.9181 267.959 21.9181C272.606 21.9181 276.55 22.8949 279.791 24.8093C283.032 26.7237 285.648 29.8102 287.679 34.0688V3.7507L313.061 0V83.0623H287.679V71.8493C283.891 79.9758 277.292 84 267.842 84C262.453 84 257.494 82.5544 253.042 79.7023ZM284.321 61.3786C286.625 58.9563 287.757 56.1823 287.757 52.9395V52.4707C287.757 49.3451 286.547 46.6493 284.165 44.3442C281.743 42.0781 279.01 40.906 275.847 40.906C272.489 40.906 269.638 42.0781 267.373 44.4614C265.069 46.8056 263.937 49.6577 263.937 52.9395C263.937 56.2995 265.108 59.1516 267.49 61.4958C269.872 63.84 272.645 65.0121 275.847 65.0121C279.205 65.0121 282.056 63.8009 284.321 61.3786Z" fill="#2D2E42"/>
<path d="M330.751 77.5926C327.041 73.2949 325.167 67.4344 325.167 59.9721V3.7507L350.549 0V58.1358C350.549 60.4019 351.096 62.0037 352.189 63.0195C353.283 64.0353 355.157 64.5433 357.891 64.5433C359.882 64.5433 361.874 64.0353 363.787 63.0977L364.646 79.9367C359.257 82.6716 353.244 84.0391 346.605 84.0391C339.772 84 334.5 81.8512 330.751 77.5926Z" fill="#2D2E42"/>
<path d="M384.288 79.9758C379.134 77.28 375.072 73.6074 372.183 68.88C369.293 64.1916 367.848 58.8781 367.848 52.9395C367.848 46.8446 369.332 41.4139 372.3 36.6865C375.268 31.959 379.29 28.2865 384.327 25.7469C389.365 23.1683 394.988 21.879 401.158 21.879C407.093 21.879 412.17 23.1683 416.387 25.786C420.604 28.4037 423.728 31.92 425.837 36.3739C427.907 40.8279 428.961 45.8288 428.961 51.3767C428.961 52.8223 428.883 53.8772 428.727 54.5023L392.645 59.1907C393.621 62.0037 395.183 64.0353 397.331 65.2855C399.478 66.5358 402.329 67.1609 405.883 67.1609C411.35 67.1609 417.246 65.7544 423.572 62.9414L426.579 79.0772C419.12 82.359 410.959 84 402.056 84C395.378 84 389.482 82.6716 384.288 79.9758ZM410.334 44.0707C409.046 39.0307 406 36.4911 401.197 36.4911C398.307 36.4911 396.042 37.5851 394.324 39.7339C392.645 41.9218 391.747 44.6958 391.668 48.173L410.334 44.0707Z" fill="#2D2E42"/>
</svg>
